<?xml version="1.0" encoding="UTF-8" standalone="no"?>
<!-- Created with Inkscape (http://www.inkscape.org/) -->

<svg
   xmlns:dc="http://purl.org/dc/elements/1.1/"
   xmlns:cc="http://creativecommons.org/ns#"
   xmlns:rdf="http://www.w3.org/1999/02/22-rdf-syntax-ns#"
   xmlns:svg="http://www.w3.org/2000/svg"
   xmlns="http://www.w3.org/2000/svg"
   xmlns:xlink="http://www.w3.org/1999/xlink"
   xmlns:sodipodi="http://sodipodi.sourceforge.net/DTD/sodipodi-0.dtd"
   xmlns:inkscape="http://www.inkscape.org/namespaces/inkscape"
   width="180mm"
   height="180mm"
   viewBox="0 0 180 180"
   version="1.1"
   id="svg8"
   inkscape:version="0.92.2 (5c3e80d, 2017-08-06)"
   sodipodi:docname="Cruz de Fracta.svg"
   inkscape:export-filename="/home/ariel/Desktop/Cruz de Fracta.png"
   inkscape:export-xdpi="169.33334"
   inkscape:export-ydpi="169.33334">
  <defs
     id="defs2">
    <linearGradient
       inkscape:collect="always"
       id="linearGradient8034">
      <stop
         style="stop-color:#a46800;stop-opacity:1"
         offset="0"
         id="stop8030" />
      <stop
         style="stop-color:#844800;stop-opacity:1"
         offset="1"
         id="stop8032" />
    </linearGradient>
    <linearGradient
       inkscape:collect="always"
       xlink:href="#linearGradient8034"
       id="linearGradient8038"
       x1="265.51929"
       y1="467.99771"
       x2="447.08444"
       y2="486.24463"
       gradientUnits="userSpaceOnUse"
       spreadMethod="reflect"
       gradientTransform="matrix(0.23518536,0,0,0.23518536,11.66667,16.499863)" />
  </defs>
  <sodipodi:namedview
     id="base"
     pagecolor="#ffffff"
     bordercolor="#666666"
     borderopacity="1.0"
     inkscape:pageopacity="0.0"
     inkscape:pageshadow="2"
     inkscape:zoom="0.57546875"
     inkscape:cx="263.2859"
     inkscape:cy="278.68015"
     inkscape:document-units="mm"
     inkscape:current-layer="layer1"
     showgrid="false"
     inkscape:window-width="1222"
     inkscape:window-height="995"
     inkscape:window-x="58"
     inkscape:window-y="0"
     inkscape:window-maximized="1"
     inkscape:snap-bbox="true"
     inkscape:bbox-paths="true"
     inkscape:snap-intersection-paths="true"
     inkscape:snap-bbox-edge-midpoints="true"
     inkscape:snap-global="true"
     fit-margin-top="0"
     fit-margin-left="0"
     fit-margin-right="0"
     fit-margin-bottom="0" />
  <metadata
     id="metadata5">
    <rdf:RDF>
      <cc:Work
         rdf:about="">
        <dc:format>image/svg+xml</dc:format>
        <dc:type
           rdf:resource="http://purl.org/dc/dcmitype/StillImage" />
        <dc:title></dc:title>
      </cc:Work>
    </rdf:RDF>
  </metadata>
  <g
     inkscape:label="bg"
     inkscape:groupmode="layer"
     id="layer1"
     style="display:inline;opacity:1"
     transform="translate(-15.000118,-58.500168)">
    <rect
       style="opacity:1;fill:#000044;fill-opacity:0.99159666;stroke:none;stroke-width:0.79374993;stroke-linecap:round;stroke-linejoin:round;stroke-miterlimit:4;stroke-dasharray:none;stroke-dashoffset:0;stroke-opacity:1"
       id="rect8040"
       width="180"
       height="180"
       x="15.000118"
       y="58.500168" />
  </g>
  <g
     inkscape:groupmode="layer"
     id="layer2"
     inkscape:label="fg"
     transform="translate(-15.000118,-58.500168)"
     sodipodi:insensitive="true">
    <path
       style="opacity:1;fill:url(#linearGradient8038);fill-opacity:1;stroke:none;stroke-width:0.79375023;stroke-linecap:round;stroke-linejoin:round;stroke-miterlimit:4;stroke-dasharray:none;stroke-dashoffset:0;stroke-opacity:1"
       d="m 130.5322,68.499713 v 1.702337 h -1.70234 -1.70188 v 1.702338 h 1.70188 v 1.701879 h -3.40422 v -1.701879 h -1.70233 v 1.701879 h -1.70188 -1.70234 v 1.702337 h 1.70234 v 1.701879 1.702338 h 1.70188 v -1.702338 h 1.70233 V 80.4147 h -5.10655 v -1.701879 h -1.70188 v -1.702338 -1.701879 h -1.70234 v 1.701879 h -1.70187 -1.70234 v 1.702338 H 115.213 V 80.4147 h -3.40422 v -1.701879 h -1.70234 V 80.4147 h -1.70234 -1.70188 v 1.702337 h 1.70188 v 1.701879 1.702337 h 1.70234 v -1.702337 h 1.70234 v 3.404216 h -1.70234 v 1.702338 h 1.70234 v 1.702338 1.70188 h 1.70188 v -1.70188 h 1.70234 1.70187 V 88.92547 H 115.213 v -1.702338 h 3.40421 v 6.808896 h -8.51077 v -1.70234 h -1.70234 v -1.70234 -1.701878 h -1.70188 v 1.701878 h -1.70233 v -3.404216 h 1.70233 v -1.701879 h -1.70233 v -1.702337 -1.701879 h -1.70188 v 1.701879 h -1.70234 -1.701877 v 1.702337 h 1.701877 v 1.701879 h -3.404215 v -1.701879 h -1.701879 v 1.701879 H 94.787239 93.08536 v 1.702338 h 1.701879 v 1.701878 1.70234 h 1.702337 v -1.70234 h 1.701879 v 3.40468 H 93.08536 v -1.70234 h -1.702337 v -1.70234 -1.701878 h -1.702338 v 1.701878 h -1.701879 -1.702337 v 1.70234 h 1.702337 v 1.70234 H 84.57459 v -1.70234 h -1.702338 v 1.70234 h -1.701879 -1.702337 v 1.70187 h 1.702337 v 1.70234 1.70188 h 1.701879 v -1.70188 h 1.702338 v 3.404222 h -1.702338 v 1.70188 h 1.702338 v 1.70233 1.70188 h 1.701879 v -1.70188 h 1.702337 1.701879 v -1.70233 h -1.701879 v -1.70188 h 3.404217 v 5.10609 h -1.702338 v 1.70234 h -1.701879 -1.702337 v 1.70234 h 1.702337 v 1.70188 1.70233 h 1.701879 v -1.70233 h 1.702338 v 3.40421 h -1.702338 v 1.70234 h 1.702338 v 1.70188 1.70234 h 1.702337 v -1.70234 h 1.701879 1.702337 v -1.70188 h -1.702337 v -1.70234 h 3.404216 v 1.70234 h 1.702338 v -1.70234 h 1.701877 1.70234 v -1.70188 h -1.70234 v -1.70233 -1.70234 h -1.701877 v 1.70234 h -1.702338 v -3.40422 h 6.808435 v 13.61687 H 89.680685 v -1.70188 h -1.701879 v -1.70234 -1.70188 h -1.702337 v 1.70188 H 84.57459 v -3.40422 h 1.701879 v -1.70188 H 84.57459 v -1.70233 -1.70234 h -1.702338 v 1.70234 h -1.701879 -1.702337 v 1.70233 h 1.702337 v 1.70188 h -3.404216 v -5.10655 h 1.701879 v -1.70188 h 1.702337 1.701879 v -1.70234 h -1.701879 v -1.70188 -1.70233 h -1.702337 v 1.70233 h -1.701879 v -3.40421 h 1.701879 v -1.702342 h -1.701879 v -1.70188 -1.70234 H 76.06382 v 1.70234 h -1.701879 -1.702338 v 1.70188 h 1.702338 v 1.702342 h -3.404675 v -1.702342 h -1.701879 v 1.702342 h -1.702338 -1.701878 v 1.70188 h 1.701878 v 1.70233 1.70188 h 1.702338 v -1.70188 h 1.701879 v 3.40422 h -5.106095 v -1.70234 h -1.702338 v -1.70188 -1.70233 h -1.701877 v 1.70233 H 60.744617 59.04274 v 1.70188 h 1.701877 v 1.70234 H 57.3404 v -1.70234 h -1.701876 v 1.70234 h -1.702338 -1.70234 v 1.70188 h 1.70234 v 1.70234 1.70233 h 1.702338 v -1.70233 H 57.3404 v 3.40421 h -1.701876 v 1.70234 H 57.3404 v 1.70188 1.70234 h 1.70234 v -1.70234 h 1.701877 1.702339 v -1.70188 h -1.702339 v -1.70234 h 3.404216 v 6.80844 h -8.510309 v -1.70188 h -1.702338 v -1.70234 -1.70188 h -1.70234 v 1.70188 H 50.53197 v -3.40422 h 1.701876 v -1.70188 H 50.53197 v -1.70233 -1.70234 h -1.70234 v 1.70234 h -1.701876 -1.702338 v 1.70233 h 1.702338 v 1.70188 h -3.404217 v -1.70188 H 42.0212 v 1.70188 h -1.701879 -1.702338 v 1.70234 h 1.702338 v 1.70188 1.70234 H 42.0212 v -1.70234 h 1.702337 v 3.40422 h -5.106554 v -1.70188 h -1.701879 v -1.70234 -1.70188 h -1.702337 v 1.70188 H 33.510429 31.80855 v 1.70234 h 1.701879 v 1.70188 h -3.404217 v -1.70188 h -1.701878 v 1.70188 h -1.702338 -1.701878 v 1.70233 h 1.701878 v 1.70188 1.70234 h 1.702338 v -1.70234 h 1.701878 v 3.40422 h -1.701878 v 1.70234 h 1.701878 v 1.70233 1.70188 h 1.702338 v -1.70188 h 1.701879 1.702338 v -1.70233 h -1.702338 v -1.70234 h 3.404675 v 5.10655 h -1.702337 v 1.70234 H 33.510888 31.80855 v 1.70188 h 1.702338 v 1.70234 1.70188 h 1.701879 v -1.70188 h 1.702337 v 3.40421 h -1.702337 v 1.70188 h 1.702337 v 1.70234 1.70188 h 1.701879 v -1.70188 h 1.702338 1.701879 v -1.70234 h -1.701879 v -1.70188 h 3.404216 v 1.70188 h 1.701879 v -1.70188 h 1.702338 1.701876 v -1.70233 h -1.701876 v -1.70188 -1.70234 h -1.702338 v 1.70234 h -1.701879 v -3.40422 h 6.808433 v 8.51031 h -1.70234 v 1.70234 h -1.701876 -1.702338 v 1.70188 h 1.702338 v 1.70234 h -3.404217 v -1.70234 H 42.0212 v 1.70234 h -1.701879 -1.702338 v 1.70233 h 1.702338 v 1.70188 1.70234 H 42.0212 v -1.70234 h 1.702337 v 3.40422 H 42.0212 v 1.70234 h 1.702337 v 1.70187 1.70234 h 1.701879 v -1.70234 h 1.702338 1.701876 v -1.70187 h -1.701876 v -1.70234 h 3.404216 v 5.10655 h -1.70234 v 1.70188 h -1.701876 -1.702338 v 1.70234 h 1.702338 v 1.70188 1.70233 h 1.701876 v -1.70233 h 1.70234 v 3.40467 h -1.70234 v 1.70188 h 1.70234 v 1.70234 1.70188 h 1.701876 v -1.70188 h 1.70234 1.702338 v -1.70234 H 53.936186 V 168.9257 H 57.3404 v 1.70188 h 1.70234 v -1.70188 h 1.701877 1.702339 v -1.70234 h -1.702339 v -1.70233 -1.70188 H 59.04274 v 1.70188 H 57.3404 v -3.40422 h 5.106556 v 1.70234 h 1.701877 v 1.70188 1.70233 h 1.702338 v -1.70233 h 1.701878 1.702338 v -1.70188 h -1.702338 v -1.70234 h 3.404217 v 1.70234 h 1.702337 v -1.70234 h 1.702338 1.701879 v -1.70188 h -1.701879 v -1.70234 -1.70187 h -1.702338 v 1.70187 h -1.702337 v -3.40421 h 1.702337 v -1.70188 h -1.702337 v -1.70234 -1.70188 h -1.701879 v 1.70188 h -1.702338 -1.701878 v 1.70234 h 1.701878 v 1.70188 h -3.404216 v -6.80843 h 13.617324 v 15.3192 H 76.06382 v 1.70234 h -1.701879 v -4.7e-4 h -1.702338 v 1.70233 h 1.702338 v 1.70234 h -3.404675 v -1.70234 h -1.701879 v 1.70234 h -1.702338 -1.701878 v 1.70188 h 1.701878 v 1.70234 1.70188 h 1.702338 v -1.70188 h 1.701879 v 3.40421 h -5.106095 v -1.70233 h -1.702338 v -1.70188 -1.70234 h -1.701877 v 1.70234 H 60.744617 59.04274 v 1.70188 h 1.701877 v 1.70233 H 57.3404 v -1.70233 h -1.701876 v 1.70233 h -1.702338 -1.70234 v 1.70188 h 1.70234 v 1.70234 1.70188 h 1.702338 v -1.70188 H 57.3404 v 3.40422 h -1.701876 v 1.70188 H 57.3404 v 1.70233 1.70234 h 1.70234 v -1.70234 h 1.701877 1.702339 v -1.70233 h -1.702339 v -1.70188 h 3.404216 v 5.10655 h -1.701877 v 1.70188 H 60.744617 59.04274 v 1.70234 h 1.701877 v 1.70188 1.70233 h 1.702339 v -1.70233 h 1.701877 v 3.40421 h -1.701877 v 1.70234 h 1.701877 v 1.70188 1.70234 h 1.702338 v -1.70234 h 1.701878 1.702338 v -1.70188 h -1.702338 v -1.70234 h 3.404217 v 1.70234 h 1.702337 v -1.70234 h 1.702338 1.701879 v -1.70188 h -1.701879 v -1.70233 -1.70188 h -1.702338 v 1.70188 h -1.702337 v -3.40422 h 6.808891 v 8.51077 H 76.06382 v 1.70188 h -1.701879 -1.702338 v 1.70234 h 1.702338 v 1.70187 h -3.404675 v -1.70187 h -1.701879 v 1.70187 h -1.702338 -1.701878 v 1.70234 h 1.701878 v 1.70234 1.70188 h 1.702338 v -1.70188 h 1.701879 v 3.40422 h -1.701879 v 1.70187 h 1.701879 v 1.70234 1.70188 h 1.702337 v -1.70188 h 1.702338 1.701879 v -1.70234 h -1.701879 v -1.70187 h 3.404216 v 5.10609 H 76.06382 v 1.70234 h -1.701879 -1.702338 v 1.70188 h 1.702338 v 1.70234 1.70187 h 1.701879 v -1.70187 h 1.702337 v 3.40421 H 76.06382 v 1.70234 h 1.702337 v 1.70188 1.70234 h 1.701879 v -1.70234 h 1.702337 1.701879 v -1.70188 h -1.701879 v -1.70234 h 3.404217 v 1.70234 h 1.701879 v -1.70234 h 1.702337 1.701879 v -1.70234 h -1.701879 v -1.70187 -1.70234 h -1.702337 v 1.70234 H 84.57459 v -3.40422 h 5.106554 v 1.70188 h 1.701879 v 1.70234 1.70187 h 1.702337 v -1.70187 h 1.701879 1.702337 v -1.70234 h -1.702337 v -1.70188 h 3.404216 v 1.70188 h 1.702338 v -1.70188 h 1.701877 1.70234 v -1.70234 h -1.70234 v -1.70188 -1.70234 h -1.701877 v 1.70234 h -1.702338 v -3.40421 h 1.702338 v -1.70234 h -1.702338 v -1.70188 -1.70234 h -1.701879 v 1.70234 H 94.787239 93.08536 v 1.70188 h 1.701879 v 1.70234 h -3.404216 v -6.8089 h 8.51077 v 1.70234 h 1.701877 v 1.70234 1.70188 h 1.70234 v -1.70188 h 1.70188 v 3.40422 h -1.70188 v 1.70187 h 1.70188 v 1.70234 1.70188 h 1.70234 v -1.70188 h 1.70187 1.70234 v -1.70234 h -1.70234 v -1.70187 h 3.40468 v 1.70187 h 1.70188 v -1.70187 h 1.70234 1.70187 v -1.70234 H 115.213 v -1.70188 -1.70234 h -1.70234 v 1.70234 h -1.70188 v -3.40468 h 5.10609 v 1.70234 h 1.70234 v 1.70234 1.70188 h 1.70188 v -1.70188 h 1.70234 1.70188 v -1.70234 h -1.70188 v -1.70234 h 3.40421 v 1.70234 h 1.70188 v -1.70234 h 1.70234 1.70234 v -1.70187 h -1.70234 v -1.70234 -1.70188 h -1.70234 v 1.70188 h -1.70188 v -3.40422 h 1.70188 v -1.70188 h -1.70188 v -1.70233 -1.70188 h -1.70233 v 1.70188 h -1.70188 -1.70234 v 1.70233 h 1.70234 v 1.70188 h -3.40422 v -5.10609 h 1.70188 v -1.70234 h 1.70234 1.70188 v -1.70188 h -1.70188 v -1.70234 -1.70233 h -1.70234 v 1.70233 h -1.70188 v -3.40421 h 1.70188 v -1.70234 h -1.70188 v -1.70188 -1.70234 h -1.70234 v 1.70234 h -1.70187 -1.70234 v 1.70188 h 1.70234 v 1.70234 h -3.40422 v -1.70234 h -1.70234 v 1.70234 h -1.70234 -1.70188 v 1.70188 h 1.70188 v 1.70233 1.70234 h 1.70234 v -1.70234 h 1.70234 v 3.40422 h -6.80889 v -13.61687 h 15.3192 v 1.70188 h 1.70234 v 1.70234 1.70188 h 1.70188 v -1.70188 h 1.70233 v 3.40422 h -1.70233 v 1.70188 h 1.70233 v 1.70233 1.70234 h 1.70188 v -1.70234 h 1.70234 1.70234 v -1.70233 h -1.70234 v -1.70188 h 3.40422 v 5.10655 h -1.70188 v 1.70188 h -1.70234 -1.70234 v 1.70234 h 1.70234 v 1.70188 1.70233 h 1.70234 v -1.70233 h 1.70188 v 3.40421 h -1.70188 v 1.70234 h 1.70188 v 1.70188 1.70234 h 1.70234 v -1.70234 h 1.70187 1.70234 v -1.70188 h -1.70234 v -1.70234 h 3.40422 v 1.70234 h 1.70234 v -1.70234 h 1.70188 1.70233 v -1.70188 h -1.70233 v -1.70233 -1.70188 h -1.70188 v 1.70188 h -1.70234 v -3.40422 h 5.10655 v 1.70234 h 1.70188 v 1.70188 1.70233 h 1.70234 v -1.70233 h 1.70234 1.70188 v -1.70188 h -1.70188 v -1.70234 h 3.40421 v 1.70234 h 1.70188 v -1.70234 h 1.70234 1.70188 v -1.70188 h -1.70188 v -1.70234 -1.70233 h -1.70234 v 1.70233 h -1.70188 v -3.40421 h 1.70188 v -1.70234 h -1.70188 v -1.70188 -1.70234 h -1.70233 v 1.70234 h -1.70188 -1.70234 v 1.70188 h 1.70234 v 1.70234 h -3.40468 v -6.80844 h 8.51077 v 1.70188 h 1.70234 v 1.70234 1.70188 h 1.70188 v -1.70188 h 1.70234 v 3.40422 h -1.70234 v 1.70188 h 1.70234 v 1.70233 1.70234 h 1.70187 v -1.70234 h 1.70234 1.70188 v -1.70233 h -1.70188 v -1.70188 h 3.40422 v 1.70188 h 1.70234 v -1.70188 h 1.70187 1.70234 v -1.70234 h -1.70234 v -1.70188 -1.70234 h -1.70187 v 1.70234 h -1.70234 v -3.40422 h 5.10655 v 1.70188 h 1.70188 v 1.70234 1.70188 h 1.70234 v -1.70188 h 1.70188 1.70233 V 177.436 h -1.70233 v -1.70188 h 3.40421 v 1.70188 h 1.70234 v -1.70188 h 1.70234 1.70188 v -1.70233 h -1.70188 v -1.70188 h -4.7e-4 v -1.70234 h -1.70188 v 1.70234 h -1.70234 v -3.40422 h 1.70234 v -1.70234 h -1.70234 v -1.70187 -1.70234 h -1.70188 v 1.70234 h -1.70234 v -4.7e-4 h -1.70187 v 1.70233 h 1.70187 v 1.70234 h -3.4042 v -5.10655 h 1.70234 v -1.70234 h 1.70188 1.70233 v -1.70188 h -1.70233 v -1.70234 -1.70187 h -1.70188 v 1.70187 h -1.70234 v -3.40421 h 1.70234 v -1.70188 h -1.70234 v -1.70234 -1.70188 h -1.70188 v 1.70188 h -1.70234 -1.70187 v 1.70234 h 1.70187 v 1.70188 h -3.40421 v -1.70188 h -1.70234 v 1.70188 h -1.70188 -1.70234 v 1.70234 h 1.70234 v 1.70187 1.70234 h 1.70188 v -1.70234 h 1.70234 v 3.40422 h -6.80843 v -8.51031 h 1.70187 v -1.70234 h 1.70234 1.70188 v -1.70188 h -1.70188 v -1.70233 h 3.40422 v 1.70233 h 1.70234 v -1.70233 h 1.70187 1.70234 v -1.70234 h -1.70234 v -1.70188 -1.70234 h -1.70187 v 1.70234 h -1.70234 v -3.40422 h 1.70234 v -1.70233 h -1.70234 v -1.70188 -1.70234 h -1.70234 v 1.70234 h -1.70188 -1.70234 v 1.70188 h 1.70234 v 1.70233 h -3.40421 v -5.10655 h 1.70187 v -1.70188 h 1.70234 1.70188 v -1.70234 h -1.70188 v -1.70187 -1.70234 h -1.70234 v 1.70234 h -1.70187 v -3.40468 h 1.70187 v -1.70188 h -1.70187 v -1.70234 -1.70187 h -1.70234 v 1.70187 h -1.70188 -1.70234 v 1.70234 h 1.70234 v 1.70188 h -3.40422 v -1.70188 h -1.70233 v 1.70188 h -1.70188 -1.70234 v 1.70234 h 1.70234 v 1.70234 1.70187 h 1.70188 v -1.70187 h 1.70233 v 3.40421 h -5.10655 v -1.70234 h -1.70234 v -1.70187 -1.70234 h -1.70188 v 1.70234 h -1.70233 -1.70188 v 1.70187 h 1.70188 v 1.70234 h -3.40422 v -1.70234 h -1.70188 v 1.70234 h -1.70234 -1.70187 v 1.70188 h 1.70187 v 1.70234 1.70188 h 1.70234 v -1.70188 h 1.70188 v 3.40421 h -1.70188 v 1.70188 h 1.70188 v 1.70234 1.70188 h 1.70234 v -1.70188 h 1.70188 1.70233 v -1.70234 h -1.70233 v -1.70188 h 3.40421 v 6.80844 h -13.61686 v -15.31921 h 1.70234 v -1.70187 h 1.70187 1.70234 v -1.70234 h -1.70234 v -1.70234 h 3.40422 v 1.70234 h 1.70234 v -1.70234 h 1.70188 1.70233 v -1.70188 h -1.70233 v -1.70234 -1.70187 h -1.70188 v 1.70187 h -1.70234 v -3.40421 h 5.10655 v 1.70234 h 1.70188 v 1.70187 1.70234 h 1.70234 v -1.70234 h 1.70234 1.70188 v -1.70187 h -1.70188 v -1.70234 h 3.40421 v 1.70234 h 1.70188 v -1.70234 h 1.70234 1.70188 v -1.70188 h -1.70188 v -1.70232 -1.70188 h -1.70234 v 1.70188 h -1.70188 v -3.40422 h 1.70188 v -1.70188 h -1.70188 v -1.70233 -1.70234 h -1.70233 v 1.70234 h -1.70188 -1.70234 v 1.70233 h 1.70234 v 1.70188 h -3.40468 v -5.10655 h 1.70234 v -1.70188 h 1.70234 1.70188 v -1.70234 h -1.70188 v -1.70188 -1.70233 h -1.70234 v 1.70233 h -1.70234 v -3.40421 h 1.70234 v -1.702342 h -1.70234 v -1.70188 -1.70234 h -1.70188 v 1.70234 h -1.70233 -1.70188 v 1.70188 h 1.70188 v 1.702342 h -3.40422 v -1.702342 h -1.70188 v 1.702342 h -1.70234 -1.70187 v 1.70188 h 1.70187 v 1.70233 1.70188 h 1.70234 v -1.70188 h 1.70188 v 3.40422 h -6.80843 v -8.510772 h 1.70234 v -1.70188 h 1.70187 1.70234 v -1.70234 h -1.70234 v -1.70187 h 3.40422 v 1.70187 h 1.70234 v -1.70187 h 1.70188 1.70233 v -1.70234 h -1.70233 v -1.70234 -1.701878 h -1.70188 v 1.701878 h -1.70234 v -3.404216 h 1.70234 v -1.701879 h -1.70234 v -1.702337 -1.701879 h -1.70188 v 1.701879 h -1.70234 -1.70187 v 1.702337 h 1.70187 v 1.701879 h -3.40421 v -5.106095 h 1.70234 V 80.4147 h 1.70187 1.70234 v -1.701879 h -1.70234 v -1.702338 -1.701879 h -1.70187 v 1.701879 h -1.70234 v -3.404216 h 1.70234 v -1.701879 h -1.70234 V 70.20205 68.499713 Z"
       id="rect11"
       inkscape:connector-curvature="0" />
  </g>
</svg>
